<?xml version="1.0" encoding="UTF-8"?>
<svg width="18px" height="14px" viewBox="0 0 18 14" version="1.1" xmlns="http://www.w3.org/2000/svg" xmlns:xlink="http://www.w3.org/1999/xlink">
    <!-- Generator: Sketch 63.1 (92452) - https://sketch.com -->
    <title>checkroom-24px copy</title>
    <desc>Created with Sketch.</desc>
    <g id="Page-1" stroke="none" stroke-width="1" fill="none" fill-rule="evenodd">
        <g id="Desktop" transform="translate(-330.000000, -129.000000)">
            <g id="checkroom-24px-copy" transform="translate(328.000000, 126.000000)">
                <rect id="Rectangle" x="0" y="0" width="21" height="21"></rect>
                <path d="M19.6380888,15.4253039 L11.8998009,9.78264274 L11.8998009,8.98654636 C13.3844724,8.55787908 14.4192435,7.08816269 14.0863171,5.44348007 C13.8523689,4.29745122 12.9165759,3.34388523 11.7378367,3.08143587 C9.68629067,2.62652366 7.85069681,4.1399816 7.85069681,6.06461021 L9.65029863,6.06461021 C9.65029863,5.33850032 10.2531652,4.75236343 11,4.75236343 C11.7468348,4.75236343 12.3497014,5.33850032 12.3497014,6.06461021 C12.3497014,6.7994684 11.7288387,7.39435361 10.973006,7.37685698 C10.4871135,7.36810867 10.1001991,7.77053101 10.1001991,8.24293985 L10.1001991,9.78264274 L2.36191125,15.4253039 C1.66906455,15.932706 2.03798292,17 2.90179179,17 L11,17 L19.0982082,17 C19.9620171,17 20.3309355,15.932706 19.6380888,15.4253039 Z M5.60119453,15.2503376 L11,11.3135973 L16.3988055,15.2503376 L5.60119453,15.2503376 Z" id="Shape" fill="#86B9A7" fill-rule="nonzero"></path>
            </g>
        </g>
    </g>
</svg>